<?xml version="1.0" standalone="no"?>
<!DOCTYPE svg PUBLIC "-//W3C//DTD SVG 20010904//EN"
 "http://www.w3.org/TR/2001/REC-SVG-20010904/DTD/svg10.dtd">
<svg version="1.0" xmlns="http://www.w3.org/2000/svg"
 width="400.000000pt" height="400.000000pt" viewBox="0 0 400.000000 400.000000"
 preserveAspectRatio="xMidYMid meet">
<metadata>
Created by potrace 1.11, written by Peter Selinger 2001-2013
</metadata>
<g transform="translate(0.000000,400.000000) scale(0.100000,-0.100000)"
fill="#000000" stroke="none">
<path d="M1010 1755 l0 -1385 230 0 230 0 0 1098 c1 836 3 1092 12 1077 7 -11
15 -40 19 -65 4 -25 28 -155 52 -290 68 -366 96 -524 117 -640 23 -127 64
-356 85 -465 8 -44 22 -120 31 -170 8 -49 24 -135 34 -190 10 -55 29 -157 41
-228 l23 -127 236 2 235 3 12 70 c14 85 49 282 68 385 20 111 63 351 130 720
25 140 52 291 60 335 9 44 27 143 41 220 14 77 34 190 45 250 11 61 23 131 26
158 3 26 9 47 14 47 5 0 9 -478 9 -1095 l0 -1095 230 0 230 0 0 1385 0 1385
-337 -2 -337 -3 -8 -30 c-4 -16 -21 -100 -38 -185 -56 -287 -79 -405 -95 -480
-9 -41 -27 -131 -41 -200 -13 -69 -34 -172 -45 -230 -12 -58 -27 -134 -34
-170 -14 -67 -34 -170 -79 -400 -15 -74 -33 -164 -41 -200 -8 -36 -19 -92 -25
-125 -10 -61 -26 -90 -33 -64 -3 8 -19 91 -37 184 -18 94 -38 199 -45 235 -7
36 -20 101 -28 145 -9 44 -21 103 -27 130 -5 28 -28 142 -50 255 -22 113 -46
239 -55 280 -9 41 -47 235 -85 430 -38 195 -73 371 -77 390 l-8 35 -342 3
-343 2 0 -1385z"/>
</g>
</svg>
